<svg width="20" height="20" viewBox="0 0 20 20" fill="none" xmlns="http://www.w3.org/2000/svg">
<rect x="2.49683" y="7.49902" width="10.0042" height="10.0042" rx="1.66667" stroke="white" stroke-width="1.25" stroke-linecap="round" stroke-linejoin="round"/>
<path d="M12.5011 12.5012H15.8358C16.7556 12.4985 17.5005 11.7536 17.5032 10.8339V4.16443C17.5005 3.24469 16.7556 2.49976 15.8358 2.49707H9.16638C8.24664 2.49976 7.50172 3.24469 7.49902 4.16443V7.49915" stroke="white" stroke-width="1.25" stroke-linecap="round" stroke-linejoin="round"/>
<path d="M10.2779 4.99789C10.2779 5.11034 10.2101 5.21173 10.1063 5.25476C10.0024 5.29779 9.88277 5.27401 9.80325 5.19449C9.72374 5.11497 9.69995 4.99539 9.74298 4.89149C9.78602 4.7876 9.8874 4.71986 9.99985 4.71986" stroke="white" stroke-width="1.25" stroke-linecap="round" stroke-linejoin="round"/>
<path d="M9.99999 4.72021C10.1535 4.72021 10.278 4.84469 10.278 4.99824" stroke="white" stroke-width="1.25" stroke-linecap="round" stroke-linejoin="round"/>
<path d="M15.2801 4.99789C15.2801 5.11034 15.2123 5.21173 15.1084 5.25476C15.0046 5.29779 14.885 5.27401 14.8055 5.19449C14.7259 5.11497 14.7021 4.99539 14.7452 4.89149C14.7882 4.7876 14.8896 4.71986 15.002 4.71986" stroke="white" stroke-width="1.25" stroke-linecap="round" stroke-linejoin="round"/>
<path d="M15.0019 4.72021C15.1555 4.72021 15.28 4.84469 15.28 4.99824" stroke="white" stroke-width="1.25" stroke-linecap="round" stroke-linejoin="round"/>
<path d="M15.2801 9.99985C15.2801 10.1534 15.1556 10.2779 15.002 10.2779C14.8485 10.2779 14.724 10.1534 14.724 9.99985C14.724 9.84629 14.8485 9.72182 15.002 9.72182" stroke="white" stroke-width="1.25" stroke-linecap="round" stroke-linejoin="round"/>
<path d="M15.0019 9.72216C15.1555 9.72216 15.28 9.84664 15.28 10.0002" stroke="white" stroke-width="1.25" stroke-linecap="round" stroke-linejoin="round"/>
<path d="M10.2779 9.99985C10.2779 10.1534 10.1534 10.2779 9.99985 10.2779C9.84629 10.2779 9.72182 10.1534 9.72182 9.99985C9.72182 9.84629 9.84629 9.72182 9.99985 9.72182" stroke="white" stroke-width="1.25" stroke-linecap="round" stroke-linejoin="round"/>
<path d="M9.99999 9.72216C10.1535 9.72216 10.278 9.84664 10.278 10.0002" stroke="white" stroke-width="1.25" stroke-linecap="round" stroke-linejoin="round"/>
<path d="M5.27593 9.99985C5.27593 10.1534 5.15145 10.2779 4.99789 10.2779C4.84434 10.2779 4.71986 10.1534 4.71986 9.99985C4.71986 9.84629 4.84434 9.72182 4.99789 9.72182" stroke="white" stroke-width="1.25" stroke-linecap="round" stroke-linejoin="round"/>
<path d="M4.99779 9.72216C5.15135 9.72216 5.27583 9.84664 5.27583 10.0002" stroke="white" stroke-width="1.25" stroke-linecap="round" stroke-linejoin="round"/>
<path d="M7.7769 12.5008C7.7769 12.6544 7.65242 12.7789 7.49887 12.7789C7.34532 12.7789 7.22084 12.6544 7.22084 12.5008C7.22084 12.3473 7.34532 12.2228 7.49887 12.2228" stroke="white" stroke-width="1.25" stroke-linecap="round" stroke-linejoin="round"/>
<path d="M7.49902 12.2231C7.57275 12.2231 7.64347 12.2524 7.69561 12.3046C7.74776 12.3567 7.77705 12.4274 7.77705 12.5012" stroke="white" stroke-width="1.25" stroke-linecap="round" stroke-linejoin="round"/>
<path d="M10.2779 15.0018C10.2779 15.1554 10.1534 15.2798 9.99985 15.2798C9.84629 15.2798 9.72182 15.1554 9.72182 15.0018C9.72182 14.8482 9.84629 14.7238 9.99985 14.7238" stroke="white" stroke-width="1.25" stroke-linecap="round" stroke-linejoin="round"/>
<path d="M9.99999 14.7241C10.1535 14.7241 10.278 14.8486 10.278 15.0021" stroke="white" stroke-width="1.25" stroke-linecap="round" stroke-linejoin="round"/>
<path d="M5.27593 15.0018C5.27593 15.1554 5.15145 15.2798 4.99789 15.2798C4.84434 15.2798 4.71986 15.1554 4.71986 15.0018C4.71986 14.8482 4.84434 14.7238 4.99789 14.7238" stroke="white" stroke-width="1.25" stroke-linecap="round" stroke-linejoin="round"/>
<path d="M4.99779 14.7241C5.15135 14.7241 5.27583 14.8486 5.27583 15.0021" stroke="white" stroke-width="1.25" stroke-linecap="round" stroke-linejoin="round"/>
</svg>
