<svg width="233" height="23" viewBox="0 0 233 23" fill="none" xmlns="http://www.w3.org/2000/svg">
<path d="M6.55547 4.72401H0.0923834V0.796686H9.30769V1.97179L6.55547 4.72401ZM11.7816 23H0.0923834L0.0923834 5.46619H7.01932L10.0499 2.43565V0.796686H11.1322L22.5122 12.1767V20.7426H14.039L11.7816 23ZM22.5122 23H12.9567L14.5029 21.4847H22.5122V23ZM16.7294 17.2172V14.5578L8.75106 6.57944H5.84422V17.2172H16.7294ZM48.0922 23H31.5789L25.6106 17.2482V0.796686L31.3933 0.796686V17.2482H42.3095V0.796686H48.0922V23ZM73.609 23H67.8571V14.5578L59.8479 6.57944H56.9719V23H51.1892V0.796686H62.2599L73.609 12.1767V23ZM98.4778 23H76.7074V12.1767L88.0874 0.796686L98.4778 0.796686V6.57944L90.4685 6.57944L87.8709 9.17705H96.8697V14.9598H82.4901V17.2482H98.4778V23ZM128.335 23H117.265V20.6189H117.574L120.604 17.5883V7.29069L117.574 4.26016H117.265V0.796686H123.047V17.2172H125.954L133.933 9.23889V0.796686H139.684V17.2172H142.437L150.415 9.23889V0.796686H156.198V2.34288L153.322 5.18787V14.4959L146.24 21.6084L145.344 20.6807H135.015L133.933 21.794V17.4028L128.335 23ZM117.265 19.7221V5.15695L119.862 7.75455V17.1245L117.265 19.7221ZM154.064 13.7538V5.65173L156.198 3.54891V11.62L154.064 13.7538ZM144.818 23H133.933V22.9691L135.479 21.4229H144.88L145.622 22.196L144.818 23ZM181.722 23H175.97V14.9598H165.085V23H159.302V12.1767L170.682 0.796686H181.722V23ZM175.97 9.17705V6.57944H173.063L170.465 9.17705H175.97ZM207.302 23H201.828L193.881 14.9598H190.603V23L184.82 23V0.796686H207.302V9.1152L201.704 14.5269L204.395 17.2482H207.302V23ZM201.519 9.17705V6.64129H190.603V9.17705H201.519ZM232.88 23H210.399V17.2482H227.097V14.867H216.367L210.399 9.1152V0.796686L230.128 0.796686V6.57944L216.181 6.57944V9.1152H226.912L232.88 14.867V23Z" fill="white"/>
</svg>
